<svg width="24" height="24" viewBox="0 0 24 24" fill="none" xmlns="http://www.w3.org/2000/svg">
<path d="M8.50534 7.69038L10.5656 3.51823C10.9566 2.72582 11.916 2.40048 12.7084 2.79156C13.024 2.94728 13.2794 3.20269 13.4351 3.51823L15.4943 7.69038L20.0995 8.36019C20.9254 8.4802 21.5117 9.21106 21.4673 10.0286L21.4528 10.1736C21.4022 10.5219 21.2382 10.8437 20.9862 11.0893L17.6533 14.3374L18.4407 18.9237C18.5817 19.7463 18.0678 20.5298 17.2766 20.7401L17.1342 20.7712C16.7874 20.8307 16.4306 20.7742 16.1192 20.6104L12.0003 18.4444L7.88152 20.6104C7.14538 20.9974 6.24514 20.7538 5.79895 20.0717L5.72076 19.9388C5.55702 19.6273 5.50052 19.2706 5.56 18.9237L6.34634 14.3374L3.01443 11.0893C2.41888 10.5088 2.37238 9.57732 2.8832 8.94219L2.98551 8.82674C3.23113 8.57477 3.55295 8.41079 3.90117 8.36019L8.50534 7.69038Z" fill="#FFC900"/>
</svg>
