<svg width="11" height="11" viewBox="0 0 11 11" fill="none" xmlns="http://www.w3.org/2000/svg">
<path fill-rule="evenodd" clip-rule="evenodd" d="M6.11883 0C6.6824 0 7.06558 0.224933 7.31857 0.613753L7.39061 0.735255L7.4765 0.89932C7.73769 1.48118 7.75307 2.55804 7.61168 3.55935L7.57311 3.80777L7.537 4.001L9.49982 4C10.2308 4 10.8396 4.52285 10.9728 5.21496L10.9929 5.35554L10.9998 5.5L10.9922 5.65048L10.9696 5.79945L10.1547 9.79945C10.0218 10.4515 9.47772 10.9322 8.82606 10.9934L8.68489 11H4.5C4.11577 11 3.76529 10.8555 3.49989 10.618C3.27333 10.8213 2.98318 10.9567 2.66264 10.9913L2.5 11H1.5C0.720304 11 0.0795513 10.4051 0.00686658 9.64446L0 9.5V5.5C0 4.7203 0.594888 4.07955 1.35554 4.00687L1.5 4H2.5C2.78784 4 3.05675 4.08108 3.28513 4.22164L3.50934 3.8107C3.64137 3.564 3.77616 3.30777 3.91033 3.04737L4.11071 2.65431L4.28537 2.30413C4.53763 1.79261 4.75676 1.32161 4.93372 0.905292C5.16688 0.360912 5.57085 0 6.11883 0ZM6.11883 1C6.07401 1 5.96603 1.035 5.85296 1.299C5.72082 1.60986 5.5718 1.93657 5.41711 2.26182L5.18224 2.74643L5.00558 3.10063L4.76913 3.56365L4.44711 4.17732L4 5L4.002 5.481L4 5.5V9.5C4 9.74546 4.17688 9.94961 4.41012 9.99194L4.5 10H8.68489C8.89285 10 9.07566 9.87191 9.1499 9.68387L9.17482 9.59982L9.98975 5.59982C9.99644 5.56697 9.99981 5.53352 9.99981 5.5C9.99981 5.25454 9.82294 5.05039 9.58969 5.00806L9.49981 5L6.49469 5.00174C6.44991 4.9772 6.41133 4.94223 6.38164 4.899C6.3195 4.809 6.31543 4.697 6.3521 4.595C6.65323 3.74028 6.82896 1.98109 6.59784 1.37969L6.55278 1.286L6.47445 1.1483C6.41854 1.06356 6.33682 1 6.11883 1ZM2.58923 5.00794C2.82085 5.04966 2.99705 5.25092 2.99996 5.49387L2.999 9.507L2.99194 9.58988C2.94961 9.82312 2.74546 10 2.5 10H1.5L1.41012 9.99194C1.17688 9.94961 1 9.74546 1 9.5V5.5L1.00806 5.41012C1.05039 5.17688 1.25454 5 1.5 5H2.5L2.58923 5.00794Z" fill="#F91F15"/>
</svg>
